<svg xmlns="http://www.w3.org/2000/svg" width="20" height="20" viewBox="0 0 20 20" fill="none">
<path d="M9.90283 2.50561L10 2.5C10.4273 2.5 10.7796 2.8217 10.8278 3.23615L10.8333 3.33333V9.16667H16.6667C17.094 9.16667 17.4462 9.48833 17.4944 9.90283L17.5 10C17.5 10.4273 17.1783 10.7796 16.7638 10.8278L16.6667 10.8333H10.8333V16.6667C10.8333 17.094 10.5117 17.4462 10.0972 17.4944L10 17.5C9.57267 17.5 9.22042 17.1783 9.17225 16.7638L9.16667 16.6667V10.8333H3.33333C2.90597 10.8333 2.55374 10.5117 2.50561 10.0972L2.5 10C2.5 9.57267 2.8217 9.22042 3.23615 9.17225L3.33333 9.16667H9.16667V3.33333C9.16667 2.90597 9.48833 2.55374 9.90283 2.50561L10 2.5L9.90283 2.50561Z" fill="black"/>
</svg>